<?xml version="1.0" standalone="no"?>
<!DOCTYPE svg PUBLIC "-//W3C//DTD SVG 20010904//EN"
 "http://www.w3.org/TR/2001/REC-SVG-20010904/DTD/svg10.dtd">
<svg version="1.0" xmlns="http://www.w3.org/2000/svg"
 width="512.000000pt" height="512.000000pt" viewBox="0 0 512.000000 512.000000"
 preserveAspectRatio="xMidYMid meet">

<g transform="translate(0.000000,512.000000) scale(0.100000,-0.100000)"
fill="#000000" stroke="none">
<path d="M2405 4664 c-136 -14 -207 -28 -228 -44 -18 -14 -37 -64 -82 -213
l-59 -195 -86 -32 c-100 -38 -223 -99 -299 -147 l-53 -34 -193 77 c-148 59
-199 75 -220 70 -36 -9 -202 -178 -293 -298 -106 -140 -182 -266 -182 -302 0
-23 29 -73 116 -198 l115 -167 -30 -94 c-28 -89 -67 -273 -73 -347 -3 -33 -8
-37 -171 -130 -92 -53 -177 -106 -189 -117 -18 -18 -21 -32 -19 -88 4 -134 54
-376 112 -542 38 -109 54 -139 74 -147 9 -3 80 -10 158 -16 78 -5 170 -12 203
-16 l61 -5 66 -98 c37 -54 105 -139 152 -189 l86 -91 -32 -206 c-26 -167 -30
-210 -20 -228 43 -81 612 -354 694 -333 13 3 84 72 159 153 l135 148 253 -1
254 0 132 -144 c73 -79 141 -149 153 -154 75 -33 666 249 702 336 9 21 5 67
-21 228 l-31 201 85 90 c46 49 113 131 147 182 34 51 65 95 69 100 3 4 97 14
208 22 120 9 210 20 222 27 57 36 165 434 177 653 5 94 4 101 -17 120 -12 11
-97 63 -188 115 -162 93 -167 97 -170 130 -6 74 -45 258 -73 347 l-30 94 115
167 c87 125 116 175 116 198 0 36 -76 162 -182 302 -91 120 -257 289 -293 298
-21 5 -72 -11 -220 -70 l-193 -77 -58 37 c-69 44 -258 135 -329 158 l-50 16
-60 197 c-69 225 -70 227 -180 243 -76 11 -375 21 -440 14z m400 -172 c29 -8
32 -15 87 -197 32 -104 64 -195 71 -202 7 -8 47 -25 88 -39 101 -35 283 -122
369 -178 39 -25 80 -46 90 -46 11 0 103 33 205 74 l185 74 76 -81 c79 -84 162
-190 227 -289 l37 -58 -115 -166 c-69 -100 -115 -176 -115 -191 0 -13 16 -69
35 -124 38 -109 69 -252 80 -364 4 -38 13 -79 20 -91 7 -11 90 -64 184 -118
140 -79 171 -101 171 -119 0 -78 -58 -343 -101 -458 l-20 -56 -191 -12 c-106
-7 -202 -17 -215 -22 -12 -4 -39 -36 -60 -70 -64 -103 -149 -212 -233 -300
-45 -46 -85 -93 -90 -105 -5 -14 2 -86 21 -205 16 -101 29 -191 29 -199 0 -8
-15 -24 -33 -34 -139 -82 -209 -117 -322 -163 l-130 -53 -90 97 c-49 54 -115
124 -147 157 l-57 59 -48 -7 c-114 -15 -325 -18 -431 -7 -77 9 -116 9 -130 2
-11 -6 -79 -75 -151 -155 l-132 -144 -62 23 c-144 52 -338 148 -402 199 l-28
22 31 194 c19 124 27 201 22 214 -5 12 -45 59 -90 105 -84 88 -169 197 -233
300 -21 34 -48 66 -60 70 -13 5 -109 15 -215 22 l-191 12 -20 56 c-43 115
-101 380 -101 458 0 17 32 39 170 118 94 53 177 107 185 118 7 12 16 54 20 92
11 112 42 255 80 364 19 55 35 111 35 124 0 15 -46 91 -115 191 l-115 166 37
58 c58 91 145 202 227 289 l76 81 185 -74 c102 -41 194 -74 205 -74 10 0 50
20 87 44 96 62 234 129 342 167 51 18 101 39 112 48 13 10 39 80 75 201 31
102 60 189 64 193 22 24 436 31 515 9z"/>
<path d="M2460 3899 c-609 -40 -1121 -505 -1225 -1114 -9 -51 -16 -149 -16
-225 0 -367 134 -692 392 -949 256 -257 581 -391 946 -392 452 -1 838 199
1106 573 234 327 303 789 176 1183 -154 475 -569 833 -1054 909 -124 19 -203
23 -325 15z m285 -170 c158 -20 358 -102 503 -206 247 -176 426 -458 478 -752
17 -100 20 -297 5 -391 -70 -436 -369 -794 -785 -939 -209 -73 -470 -83 -688
-26 -439 114 -785 489 -864 934 -19 110 -19 312 0 422 41 232 157 452 330 625
273 273 617 385 1021 333z"/>
<path d="M2670 3262 c-18 -14 -49 -129 -185 -672 -91 -360 -165 -665 -165
-678 0 -32 43 -72 78 -72 66 0 61 -15 237 690 91 360 165 665 165 678 0 57
-83 92 -130 54z"/>
<path d="M2124 3144 c-22 -9 -509 -535 -518 -560 -6 -15 -6 -33 0 -48 10 -28
498 -551 521 -560 52 -21 113 19 113 73 0 26 -34 67 -226 271 l-225 240 225
240 c192 204 226 245 226 271 0 54 -64 94 -116 73z"/>
<path d="M2905 3125 c-16 -15 -25 -36 -25 -54 0 -33 1 -33 308 -358 l144 -153
-144 -152 c-307 -326 -308 -326 -308 -359 0 -54 61 -93 113 -73 23 9 511 532
521 560 6 15 6 33 0 48 -10 28 -498 551 -521 560 -31 12 -65 5 -88 -19z"/>
</g>
</svg>
